<svg width="33" height="36" viewBox="0 0 33 36" fill="none" xmlns="http://www.w3.org/2000/svg">
<path d="M26.5833 5.8165L22.3667 9.04984L23.8833 14.1498L19.5 11.1332L15.1167 14.1498L16.6333 9.04984L12.4167 5.8165L17.7333 5.6665L19.5 0.666504L21.2667 5.6665L26.5833 5.8165ZM32.4167 17.3332L29.6833 19.4165L30.6667 22.7165L27.8333 20.7665L25 22.7165L25.9833 19.4165L23.25 17.3332L26.6833 17.2498L27.8333 13.9998L28.9833 17.2498L32.4167 17.3332ZM28.6167 25.5832C30 25.4498 31.4833 27.4165 30.6 28.6665C30.0667 29.4165 29.5 30.1165 28.8 30.7832C22.2833 37.3332 11.7333 37.3332 5.23333 30.7832C-1.28334 24.2832 -1.28334 13.7165 5.23333 7.2165C5.89999 6.54984 6.59999 5.94984 7.34999 5.4165C8.59999 4.53317 10.5667 6.0165 10.4333 7.39984C9.98333 12.1665 11.5833 17.1165 15.25 20.7665C18.9 24.4332 23.8333 26.0332 28.6167 25.5832ZM25.8833 28.9498C21.1667 28.6832 16.5 26.7332 12.8833 23.1665C9.26666 19.5165 7.33333 14.8332 7.06666 10.1332C2.38333 15.3665 2.56666 23.3998 7.58332 28.4332C12.6167 33.4498 20.65 33.6332 25.8833 28.9498Z" fill="#D3D3D3"/>
</svg>
