<svg width="19" height="10" viewBox="0 0 19 10" fill="none" xmlns="http://www.w3.org/2000/svg">
<path d="M4.87779 9.06952C4.25986 9.06952 3.68828 8.9691 3.16303 8.76828C2.64552 8.55972 2.19366 8.27007 1.80745 7.89931C1.42897 7.52855 1.13159 7.09214 0.91531 6.59007C0.706759 6.088 0.602483 5.53959 0.602483 4.94483C0.602483 4.35007 0.706759 3.80166 0.91531 3.29959C1.13159 2.79752 1.43283 2.3611 1.81903 1.99034C2.20524 1.61959 2.6571 1.33379 3.17462 1.13297C3.69986 0.924414 4.27145 0.820138 4.88938 0.820138C5.50731 0.820138 6.07117 0.91669 6.58097 1.10979C7.09848 1.3029 7.53876 1.59641 7.90179 1.99034L7.36883 2.5349C7.02897 2.19503 6.65434 1.95172 6.24497 1.80497C5.83559 1.65821 5.39531 1.58483 4.92414 1.58483C4.42207 1.58483 3.95862 1.66979 3.53379 1.83972C3.11669 2.00193 2.74979 2.23752 2.4331 2.54648C2.12414 2.84772 1.88083 3.20303 1.70317 3.61241C1.53324 4.01407 1.44828 4.45821 1.44828 4.94483C1.44828 5.42372 1.53324 5.86786 1.70317 6.27724C1.88083 6.68662 2.12414 7.04579 2.4331 7.35476C2.74979 7.656 3.11669 7.89159 3.53379 8.06152C3.95862 8.22372 4.41821 8.30483 4.91255 8.30483C5.376 8.30483 5.81241 8.23531 6.22179 8.09628C6.6389 7.95724 7.02124 7.72166 7.36883 7.38952L7.85545 8.03834C7.46924 8.37821 7.01738 8.63697 6.49986 8.81462C5.98234 8.98455 5.44166 9.06952 4.87779 9.06952ZM7.03283 7.93407V4.94483H7.85545V8.03834L7.03283 7.93407ZM13.8274 9.06952C13.2172 9.06952 12.6495 8.9691 12.1242 8.76828C11.6067 8.55972 11.1549 8.27007 10.7687 7.89931C10.3902 7.52083 10.0928 7.08441 9.87652 6.59007C9.66797 6.088 9.56369 5.53959 9.56369 4.94483C9.56369 4.35007 9.66797 3.80552 9.87652 3.31117C10.0928 2.8091 10.3902 2.37269 10.7687 2.00193C11.1549 1.62345 11.6067 1.33379 12.1242 1.13297C12.6418 0.924414 13.2095 0.820138 13.8274 0.820138C14.4376 0.820138 15.0015 0.924414 15.519 1.13297C16.0365 1.33379 16.4845 1.61959 16.863 1.99034C17.2492 2.3611 17.5466 2.79752 17.7551 3.29959C17.9714 3.80166 18.0796 4.35007 18.0796 4.94483C18.0796 5.53959 17.9714 6.088 17.7551 6.59007C17.5466 7.09214 17.2492 7.52855 16.863 7.89931C16.4845 8.27007 16.0365 8.55972 15.519 8.76828C15.0015 8.9691 14.4376 9.06952 13.8274 9.06952ZM13.8274 8.30483C14.314 8.30483 14.762 8.22372 15.1714 8.06152C15.5885 7.89159 15.9477 7.656 16.2489 7.35476C16.5579 7.04579 16.7973 6.69048 16.9673 6.28883C17.1372 5.87945 17.2222 5.43145 17.2222 4.94483C17.2222 4.45821 17.1372 4.01407 16.9673 3.61241C16.7973 3.20303 16.5579 2.84772 16.2489 2.54648C15.9477 2.23752 15.5885 2.00193 15.1714 1.83972C14.762 1.66979 14.314 1.58483 13.8274 1.58483C13.3408 1.58483 12.8889 1.66979 12.4718 1.83972C12.0547 2.00193 11.6917 2.23752 11.3827 2.54648C11.0815 2.84772 10.842 3.20303 10.6644 3.61241C10.4944 4.01407 10.4095 4.45821 10.4095 4.94483C10.4095 5.42372 10.4944 5.86786 10.6644 6.27724C10.842 6.68662 11.0815 7.04579 11.3827 7.35476C11.6917 7.656 12.0547 7.89159 12.4718 8.06152C12.8889 8.22372 13.3408 8.30483 13.8274 8.30483Z" fill="white"/>
</svg>
