<svg width="38" height="38" viewBox="0 0 38 38" fill="none" xmlns="http://www.w3.org/2000/svg">
<path d="M4.91666 30.8165L7.26666 33.1665L10.2667 30.1832L7.89999 27.8165M19 8.99984C13.4833 8.99984 8.99999 13.4832 8.99999 18.9998C8.99999 24.5165 13.4833 28.9998 19 28.9998C24.5167 28.9998 29 24.5165 29 18.9998C29 13.4665 24.5167 8.99984 19 8.99984ZM32.3333 20.6665H37.3333V17.3332H32.3333M27.7333 30.1832L30.7333 33.1665L33.0833 30.8165L30.1 27.8165M33.0833 7.33317L30.7333 4.99984L27.7333 7.98317L30.1 10.3498M20.6667 0.666504H17.3333V5.6665H20.6667M10.2667 7.98317L7.26666 4.99984L4.91666 7.33317L7.89999 10.3498L10.2667 7.98317ZM0.666656 20.6665H5.66666V17.3332H0.666656M20.6667 32.3332H17.3333V37.3332H20.6667" fill="#644BB1"/>
</svg>
